<svg width="500" height="500" viewBox="0 0 500 500" fill="none" xmlns="http://www.w3.org/2000/svg">
<g clip-path="url(#clip0)">
<rect x="-353.099" y="219.214" width="1179.11" height="369.372" transform="rotate(-15 -353.099 219.214)" fill="#FFF1CC"/>
<path d="M135.306 78.564C176.326 132.524 244.283 345.261 253.439 445.41" stroke="#FFD566" stroke-width="24" stroke-linecap="round"/>
<path d="M144.859 71.3017C140.848 66.0257 133.319 65.0001 128.043 69.011C122.767 73.0218 121.742 80.5502 125.753 85.8262L144.859 71.3017ZM241.489 446.503C242.093 453.103 247.932 457.964 254.532 457.36C261.132 456.757 265.993 450.917 265.39 444.318L241.489 446.503ZM125.753 85.8262C126.972 87.4304 128.253 89.2404 129.591 91.2578L149.592 77.9928C148.015 75.6146 146.436 73.3766 144.859 71.3017L125.753 85.8262ZM136.839 103.256C139.003 107.129 141.231 111.355 143.513 115.907L164.97 105.156C162.552 100.331 160.155 95.7818 157.79 91.5486L136.839 103.256ZM149.842 129.079C151.805 133.326 153.792 137.766 155.796 142.382L177.811 132.826C175.739 128.053 173.675 123.44 171.626 119.007L149.842 129.079ZM161.512 155.914C163.341 160.355 165.176 164.92 167.015 169.596L189.35 160.814C187.468 156.026 185.585 151.343 183.705 146.777L161.512 155.914ZM172.324 183.384C174.036 187.919 175.745 192.536 177.449 197.224L200.005 189.027C198.27 184.251 196.526 179.541 194.779 174.911L172.324 183.384ZM182.415 211.138C184.032 215.748 185.64 220.411 187.236 225.118L209.965 217.412C208.343 212.627 206.708 207.885 205.063 203.194L182.415 211.138ZM191.917 239.156C193.449 243.824 194.965 248.523 196.463 253.244L219.339 245.982C217.817 241.189 216.277 236.417 214.722 231.675L191.917 239.156ZM200.877 267.377C202.325 272.093 203.753 276.821 205.157 281.552L228.165 274.722C226.739 269.919 225.289 265.119 223.819 260.331L200.877 267.377ZM209.303 295.765C210.667 300.526 212.004 305.279 213.311 310.015L236.446 303.63C235.118 298.817 233.76 293.989 232.375 289.154L209.303 295.765ZM217.176 324.298C218.449 329.101 219.687 333.876 220.887 338.612L244.152 332.716C242.929 327.893 241.669 323.034 240.375 318.149L217.176 324.298ZM224.434 352.953C225.601 357.798 226.724 362.589 227.798 367.315L251.201 361.995C250.103 357.164 248.957 352.272 247.766 347.33L224.434 352.953ZM230.959 381.693C232 386.606 232.981 391.427 233.898 396.143L257.457 391.566C256.513 386.708 255.505 381.753 254.437 376.716L230.959 381.693ZM236.558 410.595C237.418 415.555 238.191 420.362 238.874 424.999L262.618 421.504C261.903 416.648 261.097 411.64 260.206 406.498L236.558 410.595ZM240.761 439.4C241.036 441.835 241.279 444.204 241.489 446.503L265.39 444.318C265.163 441.837 264.902 439.297 264.609 436.703L240.761 439.4Z" fill="#BD952A"/>
<path d="M196.091 61.5635C240.729 154.393 272.075 323.931 314.225 428.41" stroke="#FFD566" stroke-width="24" stroke-linecap="round"/>
<path d="M206.906 56.3632C204.034 50.3904 196.864 47.8768 190.891 50.7488C184.918 53.6209 182.405 60.791 185.277 66.7638L206.906 56.3632ZM303.097 432.899C305.576 439.045 312.569 442.018 318.715 439.538C324.861 437.059 327.833 430.066 325.354 423.92L303.097 432.899ZM185.277 66.7638C186.292 68.8763 187.303 71.0345 188.31 73.2369L210.139 63.2639C209.071 60.9256 207.993 58.6247 206.906 56.3632L185.277 66.7638ZM194.087 86.4786C195.908 90.8372 197.711 95.3295 199.499 99.9453L221.878 91.2761C220.022 86.4836 218.141 81.7968 216.233 77.2289L194.087 86.4786ZM204.628 113.628C206.264 118.13 207.887 122.727 209.498 127.409L232.192 119.601C230.54 114.8 228.872 110.074 227.186 105.432L204.628 113.628ZM214.168 141.307C215.679 145.908 217.18 150.577 218.673 155.306L241.559 148.081C240.041 143.271 238.512 138.514 236.969 133.818L214.168 141.307ZM223.041 169.381C224.464 174.041 225.88 178.75 227.29 183.499L250.297 176.666C248.871 171.864 247.437 167.097 245.995 162.372L223.041 169.381ZM231.447 197.659C232.813 202.365 234.175 207.102 235.533 211.864L258.612 205.28C257.245 200.487 255.873 195.714 254.495 190.967L231.447 197.659ZM239.566 226.101C240.9 230.841 242.232 235.597 243.563 240.365L266.679 233.913C265.345 229.133 264.008 224.358 262.668 219.598L239.566 226.101ZM247.539 254.648C248.868 259.43 250.18 264.158 251.51 268.944L274.634 262.518C273.316 257.776 271.982 252.97 270.663 248.222L247.539 254.648ZM255.492 283.252C256.827 288.034 258.163 292.808 259.503 297.568L282.605 291.066C281.272 286.328 279.94 281.571 278.609 276.801L255.492 283.252ZM263.558 311.887C264.925 316.683 266.297 321.457 267.675 326.203L290.724 319.513C289.358 314.808 287.996 310.07 286.638 305.306L263.558 311.887ZM271.873 340.508C273.298 345.309 274.731 350.074 276.172 354.795L299.126 347.786C297.705 343.13 296.29 338.425 294.88 333.677L271.873 340.508ZM280.606 369.082C282.126 373.896 283.658 378.655 285.201 383.351L308.001 375.857C306.489 371.258 304.987 366.588 303.492 361.855L280.606 369.082ZM289.986 397.577C291.64 402.378 293.311 407.102 294.999 411.738L317.55 403.525C315.913 399.031 314.289 394.439 312.677 389.758L289.986 397.577ZM300.322 425.893C301.241 428.256 302.166 430.592 303.097 432.899L325.354 423.92C324.462 421.71 323.575 419.468 322.691 417.195L300.322 425.893Z" fill="#BD952A"/>
<line x1="-268.127" y1="421.836" x2="749.425" y2="149.183" stroke="#615538" stroke-width="24"/>
<circle cx="243.234" cy="252.379" r="116.721" fill="#7A0000"/>
<circle cx="243.234" cy="252.379" r="105.721" stroke="#8E2F2F" stroke-width="22"/>
<path d="M272.046 200.937L264.196 218.048C255.551 215.124 247.646 214.164 240.479 215.169C241.203 219.264 242.225 223.874 243.545 229L272.185 220.785L276.879 237.151L248.586 245.266C250.236 250.497 252.524 256.47 255.451 263.186L241.172 273.585C252.164 278.939 265.45 279.381 281.03 274.913C282.787 274.409 284.576 273.845 286.399 273.223L277.099 298.105C256.841 301.614 239.734 299.015 225.78 290.308C211.871 281.589 201.635 265.787 195.071 242.902L239.835 195.915C247.64 198.53 258.377 200.204 272.046 200.937ZM234.201 269.43L238.836 266.225C234.545 256.498 231.339 247.936 229.218 240.539C227.096 233.142 225.514 227.191 224.473 222.687C222.097 224.869 220.295 227.137 219.069 229.49C217.889 231.83 217.158 233.991 216.876 235.973C216.626 237.896 216.959 240.452 217.874 243.642C218.776 246.786 219.505 249.154 220.061 250.745C222.48 257.957 227.193 264.185 234.201 269.43Z" fill="#8E2F2F"/>
</g>
<defs>
<clipPath id="clip0">
<rect width="500" height="500" fill="white"/>
</clipPath>
</defs>
</svg>
