<svg width="800" height="400" viewBox="0 0 800 400" fill="none" xmlns="http://www.w3.org/2000/svg">
<rect x="50" y="50" width="100" height="100" fill="#DCDCDC"/>
<path d="M85.8631 84.08V82.8H92.9831V84.08H90.1031V94H88.7431V84.08H85.8631ZM93.1309 88.336L92.5069 87.392C92.7842 87.1893 93.1629 86.9867 93.6429 86.784C94.1335 86.5813 94.7202 86.48 95.4029 86.48C96.2562 86.48 96.9495 86.6773 97.4829 87.072C98.0162 87.456 98.2829 88.0053 98.2829 88.72V94H97.0029V93.008C96.7682 93.392 96.4162 93.68 95.9469 93.872C95.4775 94.064 95.0189 94.16 94.5709 94.16C94.1229 94.16 93.7015 94.0693 93.3069 93.888C92.9229 93.696 92.6135 93.424 92.3789 93.072C92.1442 92.72 92.0269 92.2933 92.0269 91.792C92.0269 91.0773 92.2775 90.5067 92.7789 90.08C93.2909 89.6427 94.0002 89.424 94.9069 89.424C95.3975 89.424 95.8135 89.4827 96.1549 89.6C96.5069 89.7067 96.7895 89.8293 97.0029 89.968V88.896C97.0029 88.3947 96.8375 88.0533 96.5069 87.872C96.1869 87.6907 95.7975 87.6 95.3389 87.6C94.7842 87.6 94.3202 87.6907 93.9469 87.872C93.5735 88.0533 93.3015 88.208 93.1309 88.336ZM93.3229 91.728C93.3229 92.1547 93.4669 92.4853 93.7549 92.72C94.0535 92.944 94.4375 93.056 94.9069 93.056C95.4935 93.056 95.9895 92.88 96.3949 92.528C96.8002 92.176 97.0029 91.7067 97.0029 91.12V90.848C96.7042 90.6987 96.4002 90.592 96.0909 90.528C95.7815 90.464 95.4562 90.432 95.1149 90.432C94.4962 90.432 94.0429 90.5493 93.7549 90.784C93.4669 91.008 93.3229 91.3227 93.3229 91.728ZM104.37 86.64H105.97L102.77 89.68L106.29 94H104.69L101.65 90.272V94H100.37V81.52H101.65V89.216L104.37 86.64ZM110.111 94.16C109.428 94.16 108.82 94 108.287 93.68C107.764 93.3493 107.353 92.896 107.055 92.32C106.767 91.744 106.623 91.0773 106.623 90.32C106.623 89.552 106.772 88.88 107.071 88.304C107.38 87.728 107.807 87.28 108.351 86.96C108.905 86.64 109.545 86.48 110.271 86.48C111.348 86.48 112.196 86.816 112.815 87.488C113.433 88.16 113.743 89.0827 113.743 90.256C113.743 90.3307 113.737 90.4107 113.727 90.496C113.727 90.5707 113.727 90.6187 113.727 90.64H107.935C107.988 91.376 108.217 91.9467 108.623 92.352C109.028 92.7573 109.577 92.96 110.271 92.96C111.273 92.96 112.041 92.5173 112.575 91.632L113.615 92.288C112.847 93.536 111.679 94.16 110.111 94.16ZM110.271 87.6C109.641 87.6 109.129 87.7707 108.735 88.112C108.34 88.4427 108.089 88.9227 107.983 89.552H112.351C112.308 88.9653 112.095 88.496 111.711 88.144C111.337 87.7813 110.857 87.6 110.271 87.6ZM84.2313 106.6C84.2313 106.355 84.3166 106.147 84.4873 105.976C84.6686 105.805 84.8766 105.72 85.1113 105.72C85.3566 105.72 85.5646 105.805 85.7353 105.976C85.9059 106.147 85.9913 106.355 85.9913 106.6C85.9913 106.835 85.9059 107.043 85.7353 107.224C85.5646 107.395 85.3566 107.48 85.1113 107.48C84.8766 107.48 84.6686 107.395 84.4873 107.224C84.3166 107.043 84.2313 106.835 84.2313 106.6ZM84.4713 109.64H85.7513V117H84.4713V109.64ZM93.1075 112.52C93.1075 111.293 92.5848 110.68 91.5395 110.68C90.9848 110.68 90.5315 110.851 90.1795 111.192C89.8382 111.533 89.6675 111.976 89.6675 112.52V117H88.3875V109.64H89.6675V110.792C90.1475 109.917 90.8782 109.48 91.8595 109.48C92.6382 109.48 93.2515 109.741 93.6995 110.264C94.1582 110.776 94.3875 111.475 94.3875 112.36V117H93.1075V112.52ZM97.9938 120.52H96.7138V109.64H97.9938V110.904C98.2604 110.445 98.6071 110.093 99.0338 109.848C99.4711 109.603 99.9618 109.48 100.506 109.48C101.178 109.48 101.786 109.635 102.33 109.944C102.884 110.253 103.327 110.696 103.658 111.272C103.988 111.837 104.154 112.52 104.154 113.32C104.154 114.109 103.988 114.792 103.658 115.368C103.327 115.944 102.884 116.387 102.33 116.696C101.786 117.005 101.178 117.16 100.506 117.16C99.9618 117.16 99.4711 117.037 99.0338 116.792C98.6071 116.547 98.2604 116.195 97.9938 115.736V120.52ZM102.858 113.32C102.858 112.755 102.74 112.275 102.506 111.88C102.282 111.485 101.978 111.187 101.594 110.984C101.22 110.781 100.804 110.68 100.346 110.68C99.9724 110.68 99.6044 110.781 99.2418 110.984C98.8791 111.187 98.5804 111.485 98.3458 111.88C98.1111 112.275 97.9938 112.755 97.9938 113.32C97.9938 113.885 98.1111 114.365 98.3458 114.76C98.5804 115.155 98.8791 115.453 99.2418 115.656C99.6044 115.859 99.9724 115.96 100.346 115.96C100.804 115.96 101.22 115.859 101.594 115.656C101.978 115.453 102.282 115.155 102.506 114.76C102.74 114.365 102.858 113.885 102.858 113.32ZM107.199 114.12C107.199 114.707 107.332 115.16 107.599 115.48C107.865 115.8 108.255 115.96 108.767 115.96C109.332 115.96 109.785 115.789 110.127 115.448C110.468 115.107 110.639 114.664 110.639 114.12V109.64H111.919V117H110.639V115.848C110.148 116.723 109.417 117.16 108.447 117.16C107.679 117.16 107.065 116.899 106.607 116.376C106.148 115.853 105.919 115.155 105.919 114.28V109.64H107.199V114.12ZM113.205 109.64H114.405V107.08H115.685V109.64H116.885V110.84H115.685V117H114.405V110.84H113.205V109.64Z" fill="black"/>
<path d="M250 100L245 97.1135L245 102.887L250 100ZM150 100.5L245.5 100.5L245.5 99.5002L150 99.5L150 100.5Z" fill="black"/>
<path d="M350 99.9998L355 102.887L355 97.113L350 99.9998ZM450 99.5L354.5 99.4998L354.5 100.5L450 100.5L450 99.5Z" fill="black"/>
<path d="M450 300L445 297.113L445 302.887L450 300ZM350 300.5L445.5 300.5L445.5 299.5L350 299.5L350 300.5Z" fill="black"/>
<path d="M300 250L302.887 245L297.113 245L300 250ZM299.5 150L299.5 245.5L300.5 245.5L300.5 150L299.5 150Z" fill="black"/>
<path d="M500 150L502.887 155L497.113 155L500 150ZM499.5 250L499.5 154.5L500.5 154.5L500.5 250L499.5 250Z" fill="black"/>
<path d="M650 100L645 97.1135L645 102.887L650 100ZM550 100.5L645.5 100.5L645.5 99.5002L550 99.5L550 100.5Z" fill="black"/>
<rect x="250" y="50" width="100" height="100" fill="#DCDCDC"/>
<rect x="250" y="250" width="100" height="100" fill="#DCDCDC"/>
<rect x="450" y="250" width="100" height="100" fill="#DCDCDC"/>
<rect x="450" y="50" width="100" height="100" fill="#DCDCDC"/>
<rect x="650" y="50" width="100" height="100" fill="#DCDCDC"/>
<path d="M275.671 82.8H278.711C279.436 82.8 280.081 82.9387 280.647 83.216C281.223 83.4827 281.676 83.8667 282.007 84.368C282.348 84.8693 282.519 85.4667 282.519 86.16C282.519 86.8427 282.348 87.44 282.007 87.952C281.676 88.4533 281.223 88.8427 280.647 89.12C280.081 89.3867 279.436 89.52 278.711 89.52H277.031V94H275.671V82.8ZM278.711 84.08H277.031V88.24H278.711C279.436 88.24 280.023 88.064 280.471 87.712C280.929 87.36 281.159 86.8427 281.159 86.16C281.159 85.4667 280.929 84.9493 280.471 84.608C280.023 84.256 279.436 84.08 278.711 84.08ZM287.548 88.048C287.377 87.92 287.222 87.8293 287.084 87.776C286.945 87.712 286.769 87.68 286.556 87.68C286.076 87.68 285.75 87.856 285.58 88.208C285.409 88.5493 285.324 88.9867 285.324 89.52V94H284.044V86.64H285.324V87.488C285.526 87.1787 285.766 86.9333 286.044 86.752C286.321 86.5707 286.598 86.48 286.876 86.48C287.142 86.48 287.388 86.5173 287.612 86.592C287.846 86.656 288.06 86.7893 288.252 86.992L287.548 88.048ZM288.654 90.32C288.654 89.5733 288.819 88.912 289.15 88.336C289.491 87.76 289.95 87.3067 290.526 86.976C291.102 86.6453 291.747 86.48 292.462 86.48C293.187 86.48 293.832 86.6453 294.398 86.976C294.974 87.3067 295.427 87.76 295.758 88.336C296.099 88.912 296.27 89.5733 296.27 90.32C296.27 91.056 296.099 91.7173 295.758 92.304C295.427 92.88 294.974 93.3333 294.398 93.664C293.832 93.9947 293.187 94.16 292.462 94.16C291.747 94.16 291.102 93.9947 290.526 93.664C289.95 93.3333 289.491 92.88 289.15 92.304C288.819 91.7173 288.654 91.056 288.654 90.32ZM289.95 90.32C289.95 90.832 290.056 91.2853 290.27 91.68C290.494 92.0747 290.792 92.3893 291.166 92.624C291.55 92.848 291.982 92.96 292.462 92.96C292.942 92.96 293.368 92.848 293.742 92.624C294.126 92.3893 294.424 92.0747 294.638 91.68C294.862 91.2853 294.974 90.832 294.974 90.32C294.974 89.808 294.862 89.3547 294.638 88.96C294.424 88.5547 294.126 88.24 293.742 88.016C293.368 87.792 292.942 87.68 292.462 87.68C291.982 87.68 291.55 87.792 291.166 88.016C290.792 88.24 290.494 88.5547 290.27 88.96C290.056 89.3547 289.95 89.808 289.95 90.32ZM298.604 90.32C298.604 90.832 298.711 91.2853 298.924 91.68C299.148 92.0747 299.447 92.3893 299.82 92.624C300.204 92.848 300.636 92.96 301.116 92.96C301.713 92.96 302.247 92.8267 302.716 92.56C303.185 92.2933 303.505 91.9787 303.676 91.616V93.216C303.42 93.5147 303.052 93.7493 302.572 93.92C302.103 94.08 301.617 94.16 301.116 94.16C300.401 94.16 299.756 93.9947 299.18 93.664C298.604 93.3333 298.145 92.88 297.804 92.304C297.473 91.7173 297.308 91.056 297.308 90.32C297.308 89.5733 297.473 88.912 297.804 88.336C298.145 87.76 298.604 87.3067 299.18 86.976C299.756 86.6453 300.401 86.48 301.116 86.48C301.617 86.48 302.103 86.5653 302.572 86.736C303.052 86.896 303.42 87.1253 303.676 87.424V89.024C303.505 88.6613 303.185 88.3467 302.716 88.08C302.247 87.8133 301.713 87.68 301.116 87.68C300.636 87.68 300.204 87.792 299.82 88.016C299.447 88.24 299.148 88.5547 298.924 88.96C298.711 89.3547 298.604 89.808 298.604 90.32ZM308.517 94.16C307.834 94.16 307.226 94 306.693 93.68C306.17 93.3493 305.759 92.896 305.461 92.32C305.173 91.744 305.029 91.0773 305.029 90.32C305.029 89.552 305.178 88.88 305.477 88.304C305.786 87.728 306.213 87.28 306.757 86.96C307.311 86.64 307.951 86.48 308.677 86.48C309.754 86.48 310.602 86.816 311.221 87.488C311.839 88.16 312.149 89.0827 312.149 90.256C312.149 90.3307 312.143 90.4107 312.133 90.496C312.133 90.5707 312.133 90.6187 312.133 90.64H306.341C306.394 91.376 306.623 91.9467 307.029 92.352C307.434 92.7573 307.983 92.96 308.677 92.96C309.679 92.96 310.447 92.5173 310.981 91.632L312.021 92.288C311.253 93.536 310.085 94.16 308.517 94.16ZM308.677 87.6C308.047 87.6 307.535 87.7707 307.141 88.112C306.746 88.4427 306.495 88.9227 306.389 89.552H310.757C310.714 88.9653 310.501 88.496 310.117 88.144C309.743 87.7813 309.263 87.6 308.677 87.6ZM314.207 91.744C314.431 92.0853 314.703 92.3787 315.023 92.624C315.354 92.8693 315.748 92.992 316.207 92.992C316.57 92.992 316.852 92.912 317.055 92.752C317.268 92.5813 317.375 92.352 317.375 92.064C317.375 91.808 317.29 91.5947 317.119 91.424C316.959 91.2427 316.751 91.0933 316.495 90.976C316.239 90.848 315.967 90.7307 315.679 90.624C315.359 90.496 315.034 90.3467 314.703 90.176C314.383 89.9947 314.111 89.7653 313.887 89.488C313.674 89.2 313.567 88.8427 313.567 88.416C313.567 87.9787 313.679 87.616 313.903 87.328C314.138 87.04 314.436 86.8267 314.799 86.688C315.172 86.5493 315.556 86.48 315.951 86.48C316.538 86.48 317.071 86.6187 317.551 86.896C318.031 87.1733 318.383 87.5147 318.607 87.92L317.583 88.576C317.38 88.2987 317.124 88.0693 316.815 87.888C316.516 87.7067 316.175 87.616 315.791 87.616C315.524 87.616 315.295 87.6747 315.103 87.792C314.911 87.9093 314.815 88.0907 314.815 88.336C314.815 88.6347 314.97 88.88 315.279 89.072C315.599 89.2533 315.956 89.424 316.351 89.584C316.778 89.7547 317.167 89.9413 317.519 90.144C317.871 90.336 318.148 90.5707 318.351 90.848C318.564 91.1253 318.671 91.4827 318.671 91.92C318.671 92.56 318.436 93.0933 317.967 93.52C317.508 93.9467 316.9 94.16 316.143 94.16C315.652 94.16 315.21 94.0747 314.815 93.904C314.42 93.7227 314.084 93.4933 313.807 93.216C313.54 92.9387 313.338 92.656 313.199 92.368L314.207 91.744ZM320.66 91.744C320.884 92.0853 321.156 92.3787 321.476 92.624C321.807 92.8693 322.202 92.992 322.66 92.992C323.023 92.992 323.306 92.912 323.508 92.752C323.722 92.5813 323.828 92.352 323.828 92.064C323.828 91.808 323.743 91.5947 323.572 91.424C323.412 91.2427 323.204 91.0933 322.948 90.976C322.692 90.848 322.42 90.7307 322.132 90.624C321.812 90.496 321.487 90.3467 321.156 90.176C320.836 89.9947 320.564 89.7653 320.34 89.488C320.127 89.2 320.02 88.8427 320.02 88.416C320.02 87.9787 320.132 87.616 320.356 87.328C320.591 87.04 320.89 86.8267 321.252 86.688C321.626 86.5493 322.01 86.48 322.404 86.48C322.991 86.48 323.524 86.6187 324.004 86.896C324.484 87.1733 324.836 87.5147 325.06 87.92L324.036 88.576C323.834 88.2987 323.578 88.0693 323.268 87.888C322.97 87.7067 322.628 87.616 322.244 87.616C321.978 87.616 321.748 87.6747 321.556 87.792C321.364 87.9093 321.268 88.0907 321.268 88.336C321.268 88.6347 321.423 88.88 321.732 89.072C322.052 89.2533 322.41 89.424 322.804 89.584C323.231 89.7547 323.62 89.9413 323.972 90.144C324.324 90.336 324.602 90.5707 324.804 90.848C325.018 91.1253 325.124 91.4827 325.124 91.92C325.124 92.56 324.89 93.0933 324.42 93.52C323.962 93.9467 323.354 94.16 322.596 94.16C322.106 94.16 321.663 94.0747 321.268 93.904C320.874 93.7227 320.538 93.4933 320.26 93.216C319.994 92.9387 319.791 92.656 319.652 92.368L320.66 91.744ZM268.607 113.32C268.607 112.52 268.772 111.837 269.103 111.272C269.434 110.696 269.876 110.253 270.431 109.944C270.986 109.635 271.594 109.48 272.255 109.48C272.799 109.48 273.284 109.603 273.711 109.848C274.148 110.093 274.5 110.445 274.767 110.904V104.52H276.047V117H274.767V115.736C274.5 116.195 274.148 116.547 273.711 116.792C273.284 117.037 272.799 117.16 272.255 117.16C271.594 117.16 270.986 117.005 270.431 116.696C269.876 116.387 269.434 115.944 269.103 115.368C268.772 114.792 268.607 114.109 268.607 113.32ZM269.903 113.32C269.903 113.885 270.015 114.365 270.239 114.76C270.474 115.155 270.783 115.453 271.167 115.656C271.551 115.859 271.967 115.96 272.415 115.96C272.788 115.96 273.156 115.859 273.519 115.656C273.882 115.453 274.18 115.155 274.415 114.76C274.65 114.365 274.767 113.885 274.767 113.32C274.767 112.755 274.65 112.275 274.415 111.88C274.18 111.485 273.882 111.187 273.519 110.984C273.156 110.781 272.788 110.68 272.415 110.68C271.967 110.68 271.551 110.781 271.167 110.984C270.783 111.187 270.474 111.485 270.239 111.88C270.015 112.275 269.903 112.755 269.903 113.32ZM278.372 106.6C278.372 106.355 278.457 106.147 278.628 105.976C278.809 105.805 279.017 105.72 279.252 105.72C279.497 105.72 279.705 105.805 279.876 105.976C280.047 106.147 280.132 106.355 280.132 106.6C280.132 106.835 280.047 107.043 279.876 107.224C279.705 107.395 279.497 107.48 279.252 107.48C279.017 107.48 278.809 107.395 278.628 107.224C278.457 107.043 278.372 106.835 278.372 106.6ZM278.612 109.64H279.892V117H278.612V109.64ZM286.032 111.048C285.861 110.92 285.707 110.829 285.568 110.776C285.429 110.712 285.253 110.68 285.04 110.68C284.56 110.68 284.235 110.856 284.064 111.208C283.893 111.549 283.808 111.987 283.808 112.52V117H282.528V109.64H283.808V110.488C284.011 110.179 284.251 109.933 284.528 109.752C284.805 109.571 285.083 109.48 285.36 109.48C285.627 109.48 285.872 109.517 286.096 109.592C286.331 109.656 286.544 109.789 286.736 109.992L286.032 111.048ZM290.626 117.16C289.943 117.16 289.335 117 288.802 116.68C288.279 116.349 287.869 115.896 287.57 115.32C287.282 114.744 287.138 114.077 287.138 113.32C287.138 112.552 287.287 111.88 287.586 111.304C287.895 110.728 288.322 110.28 288.866 109.96C289.421 109.64 290.061 109.48 290.786 109.48C291.863 109.48 292.711 109.816 293.33 110.488C293.949 111.16 294.258 112.083 294.258 113.256C294.258 113.331 294.253 113.411 294.242 113.496C294.242 113.571 294.242 113.619 294.242 113.64H288.45C288.503 114.376 288.733 114.947 289.138 115.352C289.543 115.757 290.093 115.96 290.786 115.96C291.789 115.96 292.557 115.517 293.09 114.632L294.13 115.288C293.362 116.536 292.194 117.16 290.626 117.16ZM290.786 110.6C290.157 110.6 289.645 110.771 289.25 111.112C288.855 111.443 288.605 111.923 288.498 112.552H292.866C292.823 111.965 292.61 111.496 292.226 111.144C291.853 110.781 291.373 110.6 290.786 110.6ZM296.589 113.32C296.589 113.832 296.695 114.285 296.909 114.68C297.133 115.075 297.431 115.389 297.805 115.624C298.189 115.848 298.621 115.96 299.101 115.96C299.698 115.96 300.231 115.827 300.701 115.56C301.17 115.293 301.49 114.979 301.661 114.616V116.216C301.405 116.515 301.037 116.749 300.557 116.92C300.087 117.08 299.602 117.16 299.101 117.16C298.386 117.16 297.741 116.995 297.164 116.664C296.589 116.333 296.13 115.88 295.789 115.304C295.458 114.717 295.293 114.056 295.293 113.32C295.293 112.573 295.458 111.912 295.789 111.336C296.13 110.76 296.589 110.307 297.164 109.976C297.741 109.645 298.386 109.48 299.101 109.48C299.602 109.48 300.087 109.565 300.557 109.736C301.037 109.896 301.405 110.125 301.661 110.424V112.024C301.49 111.661 301.17 111.347 300.701 111.08C300.231 110.813 299.698 110.68 299.101 110.68C298.621 110.68 298.189 110.792 297.805 111.016C297.431 111.24 297.133 111.555 296.909 111.96C296.695 112.355 296.589 112.808 296.589 113.32ZM302.533 109.64H303.733V107.08H305.013V109.64H306.213V110.84H305.013V117H303.733V110.84H302.533V109.64ZM307.497 106.6C307.497 106.355 307.582 106.147 307.753 105.976C307.934 105.805 308.142 105.72 308.377 105.72C308.622 105.72 308.83 105.805 309.001 105.976C309.172 106.147 309.257 106.355 309.257 106.6C309.257 106.835 309.172 107.043 309.001 107.224C308.83 107.395 308.622 107.48 308.377 107.48C308.142 107.48 307.934 107.395 307.753 107.224C307.582 107.043 307.497 106.835 307.497 106.6ZM307.737 109.64H309.017V117H307.737V109.64ZM310.453 109.64H311.893L313.973 114.84L316.053 109.64H317.493L313.973 117.56L310.453 109.64ZM321.314 117.16C320.631 117.16 320.023 117 319.49 116.68C318.967 116.349 318.556 115.896 318.258 115.32C317.97 114.744 317.826 114.077 317.826 113.32C317.826 112.552 317.975 111.88 318.274 111.304C318.583 110.728 319.01 110.28 319.554 109.96C320.108 109.64 320.748 109.48 321.474 109.48C322.551 109.48 323.399 109.816 324.018 110.488C324.636 111.16 324.946 112.083 324.946 113.256C324.946 113.331 324.94 113.411 324.93 113.496C324.93 113.571 324.93 113.619 324.93 113.64H319.138C319.191 114.376 319.42 114.947 319.826 115.352C320.231 115.757 320.78 115.96 321.474 115.96C322.476 115.96 323.244 115.517 323.778 114.632L324.818 115.288C324.05 116.536 322.882 117.16 321.314 117.16ZM321.474 110.6C320.844 110.6 320.332 110.771 319.938 111.112C319.543 111.443 319.292 111.923 319.186 112.552H323.554C323.511 111.965 323.298 111.496 322.914 111.144C322.54 110.781 322.06 110.6 321.474 110.6ZM327.004 114.744C327.228 115.085 327.5 115.379 327.82 115.624C328.151 115.869 328.545 115.992 329.004 115.992C329.367 115.992 329.649 115.912 329.852 115.752C330.065 115.581 330.172 115.352 330.172 115.064C330.172 114.808 330.087 114.595 329.916 114.424C329.756 114.243 329.548 114.093 329.292 113.976C329.036 113.848 328.764 113.731 328.476 113.624C328.156 113.496 327.831 113.347 327.5 113.176C327.18 112.995 326.908 112.765 326.684 112.488C326.471 112.2 326.364 111.843 326.364 111.416C326.364 110.979 326.476 110.616 326.7 110.328C326.935 110.04 327.233 109.827 327.596 109.688C327.969 109.549 328.353 109.48 328.748 109.48C329.335 109.48 329.868 109.619 330.348 109.896C330.828 110.173 331.18 110.515 331.404 110.92L330.38 111.576C330.177 111.299 329.921 111.069 329.612 110.888C329.313 110.707 328.972 110.616 328.588 110.616C328.321 110.616 328.092 110.675 327.9 110.792C327.708 110.909 327.612 111.091 327.612 111.336C327.612 111.635 327.767 111.88 328.076 112.072C328.396 112.253 328.753 112.424 329.148 112.584C329.575 112.755 329.964 112.941 330.316 113.144C330.668 113.336 330.945 113.571 331.148 113.848C331.361 114.125 331.468 114.483 331.468 114.92C331.468 115.56 331.233 116.093 330.764 116.52C330.305 116.947 329.697 117.16 328.94 117.16C328.449 117.16 328.007 117.075 327.612 116.904C327.217 116.723 326.881 116.493 326.604 116.216C326.337 115.939 326.135 115.656 325.996 115.368L327.004 114.744Z" fill="black"/>
<path d="M487.033 82.8H488.393V94.56L479.913 85.664V94H478.553V82.24L487.033 91.136V82.8ZM493.728 94.16C493.045 94.16 492.437 94 491.904 93.68C491.381 93.3493 490.97 92.896 490.672 92.32C490.384 91.744 490.24 91.0773 490.24 90.32C490.24 89.552 490.389 88.88 490.688 88.304C490.997 87.728 491.424 87.28 491.968 86.96C492.522 86.64 493.162 86.48 493.888 86.48C494.965 86.48 495.813 86.816 496.432 87.488C497.05 88.16 497.36 89.0827 497.36 90.256C497.36 90.3307 497.354 90.4107 497.344 90.496C497.344 90.5707 497.344 90.6187 497.344 90.64H491.552C491.605 91.376 491.834 91.9467 492.24 92.352C492.645 92.7573 493.194 92.96 493.888 92.96C494.89 92.96 495.658 92.5173 496.192 91.632L497.232 92.288C496.464 93.536 495.296 94.16 493.728 94.16ZM493.888 87.6C493.258 87.6 492.746 87.7707 492.352 88.112C491.957 88.4427 491.706 88.9227 491.6 89.552H495.968C495.925 88.9653 495.712 88.496 495.328 88.144C494.954 87.7813 494.474 87.6 493.888 87.6ZM501.962 94.16C501.279 94.16 500.671 94 500.138 93.68C499.615 93.3493 499.205 92.896 498.906 92.32C498.618 91.744 498.474 91.0773 498.474 90.32C498.474 89.552 498.623 88.88 498.922 88.304C499.231 87.728 499.658 87.28 500.202 86.96C500.757 86.64 501.397 86.48 502.122 86.48C503.199 86.48 504.047 86.816 504.666 87.488C505.285 88.16 505.594 89.0827 505.594 90.256C505.594 90.3307 505.589 90.4107 505.578 90.496C505.578 90.5707 505.578 90.6187 505.578 90.64H499.786C499.839 91.376 500.069 91.9467 500.474 92.352C500.879 92.7573 501.429 92.96 502.122 92.96C503.125 92.96 503.893 92.5173 504.426 91.632L505.466 92.288C504.698 93.536 503.53 94.16 501.962 94.16ZM502.122 87.6C501.493 87.6 500.981 87.7707 500.586 88.112C500.191 88.4427 499.941 88.9227 499.834 89.552H504.202C504.159 88.9653 503.946 88.496 503.562 88.144C503.189 87.7813 502.709 87.6 502.122 87.6ZM506.708 90.32C506.708 89.52 506.874 88.8373 507.204 88.272C507.535 87.696 507.978 87.2533 508.532 86.944C509.087 86.6347 509.695 86.48 510.356 86.48C510.9 86.48 511.386 86.6027 511.812 86.848C512.25 87.0933 512.602 87.4453 512.868 87.904V81.52H514.148V94H512.868V92.736C512.602 93.1947 512.25 93.5467 511.812 93.792C511.386 94.0373 510.9 94.16 510.356 94.16C509.695 94.16 509.087 94.0053 508.532 93.696C507.978 93.3867 507.535 92.944 507.204 92.368C506.874 91.792 506.708 91.1093 506.708 90.32ZM508.004 90.32C508.004 90.8853 508.116 91.3653 508.34 91.76C508.575 92.1547 508.884 92.4533 509.268 92.656C509.652 92.8587 510.068 92.96 510.516 92.96C510.89 92.96 511.258 92.8587 511.62 92.656C511.983 92.4533 512.282 92.1547 512.516 91.76C512.751 91.3653 512.868 90.8853 512.868 90.32C512.868 89.7547 512.751 89.2747 512.516 88.88C512.282 88.4853 511.983 88.1867 511.62 87.984C511.258 87.7813 510.89 87.68 510.516 87.68C510.068 87.68 509.652 87.7813 509.268 87.984C508.884 88.1867 508.575 88.4853 508.34 88.88C508.116 89.2747 508.004 89.7547 508.004 90.32ZM516.777 91.744C517.001 92.0853 517.273 92.3787 517.593 92.624C517.924 92.8693 518.319 92.992 518.777 92.992C519.14 92.992 519.423 92.912 519.625 92.752C519.839 92.5813 519.945 92.352 519.945 92.064C519.945 91.808 519.86 91.5947 519.689 91.424C519.529 91.2427 519.321 91.0933 519.065 90.976C518.809 90.848 518.537 90.7307 518.249 90.624C517.929 90.496 517.604 90.3467 517.273 90.176C516.953 89.9947 516.681 89.7653 516.457 89.488C516.244 89.2 516.137 88.8427 516.137 88.416C516.137 87.9787 516.249 87.616 516.473 87.328C516.708 87.04 517.007 86.8267 517.369 86.688C517.743 86.5493 518.127 86.48 518.521 86.48C519.108 86.48 519.641 86.6187 520.121 86.896C520.601 87.1733 520.953 87.5147 521.177 87.92L520.153 88.576C519.951 88.2987 519.695 88.0693 519.385 87.888C519.087 87.7067 518.745 87.616 518.361 87.616C518.095 87.616 517.865 87.6747 517.673 87.792C517.481 87.9093 517.385 88.0907 517.385 88.336C517.385 88.6347 517.54 88.88 517.849 89.072C518.169 89.2533 518.527 89.424 518.921 89.584C519.348 89.7547 519.737 89.9413 520.089 90.144C520.441 90.336 520.719 90.5707 520.921 90.848C521.135 91.1253 521.241 91.4827 521.241 91.92C521.241 92.56 521.007 93.0933 520.537 93.52C520.079 93.9467 519.471 94.16 518.713 94.16C518.223 94.16 517.78 94.0747 517.385 93.904C516.991 93.7227 516.655 93.4933 516.377 93.216C516.111 92.9387 515.908 92.656 515.769 92.368L516.777 91.744ZM480.181 111.048C480.01 110.92 479.855 110.829 479.717 110.776C479.578 110.712 479.402 110.68 479.189 110.68C478.709 110.68 478.383 110.856 478.213 111.208C478.042 111.549 477.957 111.987 477.957 112.52V117H476.677V109.64H477.957V110.488C478.159 110.179 478.399 109.933 478.677 109.752C478.954 109.571 479.231 109.48 479.509 109.48C479.775 109.48 480.021 109.517 480.245 109.592C480.479 109.656 480.693 109.789 480.885 109.992L480.181 111.048ZM484.775 117.16C484.092 117.16 483.484 117 482.951 116.68C482.428 116.349 482.017 115.896 481.719 115.32C481.431 114.744 481.287 114.077 481.287 113.32C481.287 112.552 481.436 111.88 481.735 111.304C482.044 110.728 482.471 110.28 483.015 109.96C483.569 109.64 484.209 109.48 484.935 109.48C486.012 109.48 486.86 109.816 487.479 110.488C488.097 111.16 488.407 112.083 488.407 113.256C488.407 113.331 488.401 113.411 488.391 113.496C488.391 113.571 488.391 113.619 488.391 113.64H482.599C482.652 114.376 482.881 114.947 483.287 115.352C483.692 115.757 484.241 115.96 484.935 115.96C485.937 115.96 486.705 115.517 487.239 114.632L488.279 115.288C487.511 116.536 486.343 117.16 484.775 117.16ZM484.935 110.6C484.305 110.6 483.793 110.771 483.399 111.112C483.004 111.443 482.753 111.923 482.647 112.552H487.015C486.972 111.965 486.759 111.496 486.375 111.144C486.001 110.781 485.521 110.6 484.935 110.6ZM489.041 113.8V112.6H492.241V113.8H489.041ZM497.024 111.048C496.854 110.92 496.699 110.829 496.56 110.776C496.422 110.712 496.246 110.68 496.032 110.68C495.552 110.68 495.227 110.856 495.056 111.208C494.886 111.549 494.8 111.987 494.8 112.52V117H493.52V109.64H494.8V110.488C495.003 110.179 495.243 109.933 495.52 109.752C495.798 109.571 496.075 109.48 496.352 109.48C496.619 109.48 496.864 109.517 497.088 109.592C497.323 109.656 497.536 109.789 497.728 109.992L497.024 111.048ZM500.285 114.12C500.285 114.707 500.418 115.16 500.685 115.48C500.951 115.8 501.341 115.96 501.853 115.96C502.418 115.96 502.871 115.789 503.213 115.448C503.554 115.107 503.725 114.664 503.725 114.12V109.64H505.005V117H503.725V115.848C503.234 116.723 502.503 117.16 501.533 117.16C500.765 117.16 500.151 116.899 499.693 116.376C499.234 115.853 499.005 115.155 499.005 114.28V109.64H500.285V114.12ZM512.131 112.52C512.131 111.293 511.608 110.68 510.563 110.68C510.008 110.68 509.555 110.851 509.203 111.192C508.862 111.533 508.691 111.976 508.691 112.52V117H507.411V109.64H508.691V110.792C509.171 109.917 509.902 109.48 510.883 109.48C511.662 109.48 512.275 109.741 512.723 110.264C513.182 110.776 513.411 111.475 513.411 112.36V117H512.131V112.52ZM521.273 109C521.273 108.307 521.06 107.773 520.633 107.4C520.217 107.027 519.647 106.84 518.921 106.84C518.388 106.84 517.929 106.963 517.545 107.208C517.172 107.443 516.863 107.763 516.617 108.168L515.577 107.512C515.823 107.139 516.095 106.813 516.393 106.536C516.692 106.248 517.055 106.029 517.481 105.88C517.919 105.72 518.452 105.64 519.081 105.64C519.753 105.64 520.351 105.789 520.873 106.088C521.396 106.376 521.807 106.776 522.105 107.288C522.415 107.789 522.569 108.36 522.569 109C522.569 109.608 522.409 110.163 522.089 110.664C521.769 111.155 521.353 111.555 520.841 111.864C520.329 112.163 519.775 112.328 519.177 112.36L519.065 114.28H518.105L517.785 111.48H518.201C518.841 111.48 519.391 111.357 519.849 111.112C520.308 110.867 520.66 110.557 520.905 110.184C521.151 109.8 521.273 109.405 521.273 109ZM517.737 116.36C517.737 116.115 517.823 115.907 517.993 115.736C518.175 115.565 518.383 115.48 518.617 115.48C518.863 115.48 519.071 115.565 519.241 115.736C519.412 115.907 519.497 116.115 519.497 116.36C519.497 116.595 519.412 116.803 519.241 116.984C519.071 117.155 518.863 117.24 518.617 117.24C518.383 117.24 518.175 117.155 517.993 116.984C517.823 116.803 517.737 116.595 517.737 116.36Z" fill="black"/>
<path d="M395.845 82.8H397.365L393.637 89.168V94H392.277V89.184L388.549 82.8H390.069L392.949 87.984L395.845 82.8ZM399.892 94.16C399.209 94.16 398.601 94 398.068 93.68C397.545 93.3493 397.134 92.896 396.836 92.32C396.548 91.744 396.404 91.0773 396.404 90.32C396.404 89.552 396.553 88.88 396.852 88.304C397.161 87.728 397.588 87.28 398.132 86.96C398.686 86.64 399.326 86.48 400.052 86.48C401.129 86.48 401.977 86.816 402.596 87.488C403.214 88.16 403.524 89.0827 403.524 90.256C403.524 90.3307 403.518 90.4107 403.508 90.496C403.508 90.5707 403.508 90.6187 403.508 90.64H397.716C397.769 91.376 397.998 91.9467 398.404 92.352C398.809 92.7573 399.358 92.96 400.052 92.96C401.054 92.96 401.822 92.5173 402.356 91.632L403.396 92.288C402.628 93.536 401.46 94.16 399.892 94.16ZM400.052 87.6C399.422 87.6 398.91 87.7707 398.516 88.112C398.121 88.4427 397.87 88.9227 397.764 89.552H402.132C402.089 88.9653 401.876 88.496 401.492 88.144C401.118 87.7813 400.638 87.6 400.052 87.6ZM405.582 91.744C405.806 92.0853 406.078 92.3787 406.398 92.624C406.729 92.8693 407.123 92.992 407.582 92.992C407.945 92.992 408.227 92.912 408.43 92.752C408.643 92.5813 408.75 92.352 408.75 92.064C408.75 91.808 408.665 91.5947 408.494 91.424C408.334 91.2427 408.126 91.0933 407.87 90.976C407.614 90.848 407.342 90.7307 407.054 90.624C406.734 90.496 406.409 90.3467 406.078 90.176C405.758 89.9947 405.486 89.7653 405.262 89.488C405.049 89.2 404.942 88.8427 404.942 88.416C404.942 87.9787 405.054 87.616 405.278 87.328C405.513 87.04 405.811 86.8267 406.174 86.688C406.547 86.5493 406.931 86.48 407.326 86.48C407.913 86.48 408.446 86.6187 408.926 86.896C409.406 87.1733 409.758 87.5147 409.982 87.92L408.958 88.576C408.755 88.2987 408.499 88.0693 408.19 87.888C407.891 87.7067 407.55 87.616 407.166 87.616C406.899 87.616 406.67 87.6747 406.478 87.792C406.286 87.9093 406.19 88.0907 406.19 88.336C406.19 88.6347 406.345 88.88 406.654 89.072C406.974 89.2533 407.331 89.424 407.726 89.584C408.153 89.7547 408.542 89.9413 408.894 90.144C409.246 90.336 409.523 90.5707 409.726 90.848C409.939 91.1253 410.046 91.4827 410.046 91.92C410.046 92.56 409.811 93.0933 409.342 93.52C408.883 93.9467 408.275 94.16 407.518 94.16C407.027 94.16 406.585 94.0747 406.19 93.904C405.795 93.7227 405.459 93.4933 405.182 93.216C404.915 92.9387 404.713 92.656 404.574 92.368L405.582 91.744Z" fill="black"/>
<path d="M598.19 82.8H599.55V94.56L591.07 85.664V94H589.71V82.24L598.19 91.136V82.8ZM601.396 90.32C601.396 89.5733 601.561 88.912 601.892 88.336C602.233 87.76 602.692 87.3067 603.268 86.976C603.844 86.6453 604.489 86.48 605.204 86.48C605.929 86.48 606.575 86.6453 607.14 86.976C607.716 87.3067 608.169 87.76 608.5 88.336C608.841 88.912 609.012 89.5733 609.012 90.32C609.012 91.056 608.841 91.7173 608.5 92.304C608.169 92.88 607.716 93.3333 607.14 93.664C606.575 93.9947 605.929 94.16 605.204 94.16C604.489 94.16 603.844 93.9947 603.268 93.664C602.692 93.3333 602.233 92.88 601.892 92.304C601.561 91.7173 601.396 91.056 601.396 90.32ZM602.692 90.32C602.692 90.832 602.799 91.2853 603.012 91.68C603.236 92.0747 603.535 92.3893 603.908 92.624C604.292 92.848 604.724 92.96 605.204 92.96C605.684 92.96 606.111 92.848 606.484 92.624C606.868 92.3893 607.167 92.0747 607.38 91.68C607.604 91.2853 607.716 90.832 607.716 90.32C607.716 89.808 607.604 89.3547 607.38 88.96C607.167 88.5547 606.868 88.24 606.484 88.016C606.111 87.792 605.684 87.68 605.204 87.68C604.724 87.68 604.292 87.792 603.908 88.016C603.535 88.24 603.236 88.5547 603.012 88.96C602.799 89.3547 602.692 89.808 602.692 90.32Z" fill="black"/>
<path d="M685.046 82.8H686.406V94H685.046V82.8ZM689.192 91.744C689.416 92.0853 689.688 92.3787 690.008 92.624C690.338 92.8693 690.733 92.992 691.192 92.992C691.554 92.992 691.837 92.912 692.04 92.752C692.253 92.5813 692.36 92.352 692.36 92.064C692.36 91.808 692.274 91.5947 692.104 91.424C691.944 91.2427 691.736 91.0933 691.48 90.976C691.224 90.848 690.952 90.7307 690.664 90.624C690.344 90.496 690.018 90.3467 689.688 90.176C689.368 89.9947 689.096 89.7653 688.872 89.488C688.658 89.2 688.552 88.8427 688.552 88.416C688.552 87.9787 688.664 87.616 688.888 87.328C689.122 87.04 689.421 86.8267 689.784 86.688C690.157 86.5493 690.541 86.48 690.936 86.48C691.522 86.48 692.056 86.6187 692.536 86.896C693.016 87.1733 693.368 87.5147 693.592 87.92L692.568 88.576C692.365 88.2987 692.109 88.0693 691.799 87.888C691.501 87.7067 691.16 87.616 690.776 87.616C690.509 87.616 690.28 87.6747 690.088 87.792C689.896 87.9093 689.799 88.0907 689.799 88.336C689.799 88.6347 689.954 88.88 690.264 89.072C690.584 89.2533 690.941 89.424 691.336 89.584C691.762 89.7547 692.152 89.9413 692.504 90.144C692.856 90.336 693.133 90.5707 693.336 90.848C693.549 91.1253 693.656 91.4827 693.656 91.92C693.656 92.56 693.421 93.0933 692.952 93.52C692.493 93.9467 691.885 94.16 691.128 94.16C690.637 94.16 690.194 94.0747 689.799 93.904C689.405 93.7227 689.069 93.4933 688.792 93.216C688.525 92.9387 688.322 92.656 688.184 92.368L689.192 91.744ZM695.645 91.744C695.869 92.0853 696.141 92.3787 696.461 92.624C696.791 92.8693 697.186 92.992 697.645 92.992C698.007 92.992 698.29 92.912 698.493 92.752C698.706 92.5813 698.813 92.352 698.813 92.064C698.813 91.808 698.727 91.5947 698.557 91.424C698.397 91.2427 698.189 91.0933 697.933 90.976C697.677 90.848 697.405 90.7307 697.117 90.624C696.797 90.496 696.471 90.3467 696.141 90.176C695.821 89.9947 695.549 89.7653 695.325 89.488C695.111 89.2 695.005 88.8427 695.005 88.416C695.005 87.9787 695.117 87.616 695.341 87.328C695.575 87.04 695.874 86.8267 696.237 86.688C696.61 86.5493 696.994 86.48 697.389 86.48C697.975 86.48 698.509 86.6187 698.989 86.896C699.469 87.1733 699.821 87.5147 700.045 87.92L699.021 88.576C698.818 88.2987 698.562 88.0693 698.253 87.888C697.954 87.7067 697.613 87.616 697.229 87.616C696.962 87.616 696.733 87.6747 696.541 87.792C696.349 87.9093 696.253 88.0907 696.253 88.336C696.253 88.6347 696.407 88.88 696.717 89.072C697.037 89.2533 697.394 89.424 697.789 89.584C698.215 89.7547 698.605 89.9413 698.957 90.144C699.309 90.336 699.586 90.5707 699.789 90.848C700.002 91.1253 700.109 91.4827 700.109 91.92C700.109 92.56 699.874 93.0933 699.405 93.52C698.946 93.9467 698.338 94.16 697.581 94.16C697.09 94.16 696.647 94.0747 696.253 93.904C695.858 93.7227 695.522 93.4933 695.245 93.216C694.978 92.9387 694.775 92.656 694.637 92.368L695.645 91.744ZM703.074 91.12C703.074 91.7067 703.207 92.16 703.474 92.48C703.74 92.8 704.13 92.96 704.642 92.96C705.207 92.96 705.66 92.7893 706.002 92.448C706.343 92.1067 706.514 91.664 706.514 91.12V86.64H707.794V94H706.514V92.848C706.023 93.7227 705.292 94.16 704.322 94.16C703.554 94.16 702.94 93.8987 702.482 93.376C702.023 92.8533 701.794 92.1547 701.794 91.28V86.64H703.074V91.12ZM713.048 94.16C712.365 94.16 711.757 94 711.224 93.68C710.701 93.3493 710.291 92.896 709.992 92.32C709.704 91.744 709.56 91.0773 709.56 90.32C709.56 89.552 709.709 88.88 710.008 88.304C710.317 87.728 710.744 87.28 711.288 86.96C711.843 86.64 712.483 86.48 713.208 86.48C714.285 86.48 715.133 86.816 715.752 87.488C716.371 88.16 716.68 89.0827 716.68 90.256C716.68 90.3307 716.675 90.4107 716.664 90.496C716.664 90.5707 716.664 90.6187 716.664 90.64H710.872C710.925 91.376 711.155 91.9467 711.56 92.352C711.965 92.7573 712.515 92.96 713.208 92.96C714.211 92.96 714.979 92.5173 715.512 91.632L716.552 92.288C715.784 93.536 714.616 94.16 713.048 94.16ZM713.208 87.6C712.579 87.6 712.067 87.7707 711.672 88.112C711.277 88.4427 711.027 88.9227 710.92 89.552H715.288C715.245 88.9653 715.032 88.496 714.648 88.144C714.275 87.7813 713.795 87.6 713.208 87.6ZM679.88 113.32C679.88 112.573 680.046 111.912 680.376 111.336C680.718 110.76 681.176 110.307 681.752 109.976C682.328 109.645 682.974 109.48 683.688 109.48C684.414 109.48 685.059 109.645 685.624 109.976C686.2 110.307 686.654 110.76 686.984 111.336C687.326 111.912 687.496 112.573 687.496 113.32C687.496 114.056 687.326 114.717 686.984 115.304C686.654 115.88 686.2 116.333 685.624 116.664C685.059 116.995 684.414 117.16 683.688 117.16C682.974 117.16 682.328 116.995 681.752 116.664C681.176 116.333 680.718 115.88 680.376 115.304C680.046 114.717 679.88 114.056 679.88 113.32ZM681.176 113.32C681.176 113.832 681.283 114.285 681.496 114.68C681.72 115.075 682.019 115.389 682.392 115.624C682.776 115.848 683.208 115.96 683.688 115.96C684.168 115.96 684.595 115.848 684.968 115.624C685.352 115.389 685.651 115.075 685.864 114.68C686.088 114.285 686.2 113.832 686.2 113.32C686.2 112.808 686.088 112.355 685.864 111.96C685.651 111.555 685.352 111.24 684.968 111.016C684.595 110.792 684.168 110.68 683.688 110.68C683.208 110.68 682.776 110.792 682.392 111.016C682.019 111.24 681.72 111.555 681.496 111.96C681.283 112.355 681.176 112.808 681.176 113.32ZM690.535 114.12C690.535 114.707 690.668 115.16 690.935 115.48C691.201 115.8 691.591 115.96 692.103 115.96C692.668 115.96 693.121 115.789 693.463 115.448C693.804 115.107 693.975 114.664 693.975 114.12V109.64H695.255V117H693.975V115.848C693.484 116.723 692.753 117.16 691.783 117.16C691.015 117.16 690.401 116.899 689.943 116.376C689.484 115.853 689.255 115.155 689.255 114.28V109.64H690.535V114.12ZM696.541 109.64H697.741V107.08H699.021V109.64H700.221V110.84H699.021V117H697.741V110.84H696.541V109.64ZM702.705 120.52H701.425V109.64H702.705V110.904C702.971 110.445 703.318 110.093 703.745 109.848C704.182 109.603 704.673 109.48 705.217 109.48C705.889 109.48 706.497 109.635 707.041 109.944C707.595 110.253 708.038 110.696 708.369 111.272C708.699 111.837 708.865 112.52 708.865 113.32C708.865 114.109 708.699 114.792 708.369 115.368C708.038 115.944 707.595 116.387 707.041 116.696C706.497 117.005 705.889 117.16 705.217 117.16C704.673 117.16 704.182 117.037 703.745 116.792C703.318 116.547 702.971 116.195 702.705 115.736V120.52ZM707.569 113.32C707.569 112.755 707.451 112.275 707.217 111.88C706.993 111.485 706.689 111.187 706.305 110.984C705.931 110.781 705.515 110.68 705.057 110.68C704.683 110.68 704.315 110.781 703.953 110.984C703.59 111.187 703.291 111.485 703.057 111.88C702.822 112.275 702.705 112.755 702.705 113.32C702.705 113.885 702.822 114.365 703.057 114.76C703.291 115.155 703.59 115.453 703.953 115.656C704.315 115.859 704.683 115.96 705.057 115.96C705.515 115.96 705.931 115.859 706.305 115.656C706.689 115.453 706.993 115.155 707.217 114.76C707.451 114.365 707.569 113.885 707.569 113.32ZM711.91 114.12C711.91 114.707 712.043 115.16 712.31 115.48C712.576 115.8 712.966 115.96 713.478 115.96C714.043 115.96 714.496 115.789 714.838 115.448C715.179 115.107 715.35 114.664 715.35 114.12V109.64H716.63V117H715.35V115.848C714.859 116.723 714.128 117.16 713.158 117.16C712.39 117.16 711.776 116.899 711.318 116.376C710.859 115.853 710.63 115.155 710.63 114.28V109.64H711.91V114.12ZM717.916 109.64H719.116V107.08H720.396V109.64H721.596V110.84H720.396V117H719.116V110.84H717.916V109.64Z" fill="black"/>
<path d="M474.715 284.08V282.8H481.835V284.08H478.955V294H477.595V284.08H474.715ZM488.548 286.64L483.748 297.52H482.308L484.324 292.96L481.508 286.64H483.028L485.092 291.712L487.108 286.64H488.548ZM490.955 297.52H489.675V286.64H490.955V287.904C491.221 287.445 491.568 287.093 491.995 286.848C492.432 286.603 492.923 286.48 493.467 286.48C494.139 286.48 494.747 286.635 495.291 286.944C495.845 287.253 496.288 287.696 496.619 288.272C496.949 288.837 497.115 289.52 497.115 290.32C497.115 291.109 496.949 291.792 496.619 292.368C496.288 292.944 495.845 293.387 495.291 293.696C494.747 294.005 494.139 294.16 493.467 294.16C492.923 294.16 492.432 294.037 491.995 293.792C491.568 293.547 491.221 293.195 490.955 292.736V297.52ZM495.819 290.32C495.819 289.755 495.701 289.275 495.467 288.88C495.243 288.485 494.939 288.187 494.555 287.984C494.181 287.781 493.765 287.68 493.307 287.68C492.933 287.68 492.565 287.781 492.203 287.984C491.84 288.187 491.541 288.485 491.307 288.88C491.072 289.275 490.955 289.755 490.955 290.32C490.955 290.885 491.072 291.365 491.307 291.76C491.541 292.155 491.84 292.453 492.203 292.656C492.565 292.859 492.933 292.96 493.307 292.96C493.765 292.96 494.181 292.859 494.555 292.656C494.939 292.453 495.243 292.155 495.467 291.76C495.701 291.365 495.819 290.885 495.819 290.32ZM501.728 294.16C501.045 294.16 500.437 294 499.904 293.68C499.381 293.349 498.97 292.896 498.672 292.32C498.384 291.744 498.24 291.077 498.24 290.32C498.24 289.552 498.389 288.88 498.688 288.304C498.997 287.728 499.424 287.28 499.968 286.96C500.522 286.64 501.162 286.48 501.888 286.48C502.965 286.48 503.813 286.816 504.432 287.488C505.05 288.16 505.36 289.083 505.36 290.256C505.36 290.331 505.354 290.411 505.344 290.496C505.344 290.571 505.344 290.619 505.344 290.64H499.552C499.605 291.376 499.834 291.947 500.24 292.352C500.645 292.757 501.194 292.96 501.888 292.96C502.89 292.96 503.658 292.517 504.192 291.632L505.232 292.288C504.464 293.536 503.296 294.16 501.728 294.16ZM501.888 287.6C501.258 287.6 500.746 287.771 500.352 288.112C499.957 288.443 499.706 288.923 499.6 289.552H503.968C503.925 288.965 503.712 288.496 503.328 288.144C502.954 287.781 502.474 287.6 501.888 287.6ZM507.418 291.744C507.642 292.085 507.914 292.379 508.234 292.624C508.565 292.869 508.959 292.992 509.418 292.992C509.781 292.992 510.063 292.912 510.266 292.752C510.479 292.581 510.586 292.352 510.586 292.064C510.586 291.808 510.501 291.595 510.33 291.424C510.17 291.243 509.962 291.093 509.706 290.976C509.45 290.848 509.178 290.731 508.89 290.624C508.57 290.496 508.245 290.347 507.914 290.176C507.594 289.995 507.322 289.765 507.098 289.488C506.885 289.2 506.778 288.843 506.778 288.416C506.778 287.979 506.89 287.616 507.114 287.328C507.349 287.04 507.647 286.827 508.01 286.688C508.383 286.549 508.767 286.48 509.162 286.48C509.749 286.48 510.282 286.619 510.762 286.896C511.242 287.173 511.594 287.515 511.818 287.92L510.794 288.576C510.591 288.299 510.335 288.069 510.026 287.888C509.727 287.707 509.386 287.616 509.002 287.616C508.735 287.616 508.506 287.675 508.314 287.792C508.122 287.909 508.026 288.091 508.026 288.336C508.026 288.635 508.181 288.88 508.49 289.072C508.81 289.253 509.167 289.424 509.562 289.584C509.989 289.755 510.378 289.941 510.73 290.144C511.082 290.336 511.359 290.571 511.562 290.848C511.775 291.125 511.882 291.483 511.882 291.92C511.882 292.56 511.647 293.093 511.178 293.52C510.719 293.947 510.111 294.16 509.354 294.16C508.863 294.16 508.421 294.075 508.026 293.904C507.631 293.723 507.295 293.493 507.018 293.216C506.751 292.939 506.549 292.656 506.41 292.368L507.418 291.744ZM516.415 294.16C515.733 294.16 515.125 294 514.591 293.68C514.069 293.349 513.658 292.896 513.359 292.32C513.071 291.744 512.927 291.077 512.927 290.32C512.927 289.552 513.077 288.88 513.375 288.304C513.685 287.728 514.111 287.28 514.655 286.96C515.21 286.64 515.85 286.48 516.575 286.48C517.653 286.48 518.501 286.816 519.119 287.488C519.738 288.16 520.047 289.083 520.047 290.256C520.047 290.331 520.042 290.411 520.031 290.496C520.031 290.571 520.031 290.619 520.031 290.64H514.239C514.293 291.376 514.522 291.947 514.927 292.352C515.333 292.757 515.882 292.96 516.575 292.96C517.578 292.96 518.346 292.517 518.879 291.632L519.919 292.288C519.151 293.536 517.983 294.16 516.415 294.16ZM516.575 287.6C515.946 287.6 515.434 287.771 515.039 288.112C514.645 288.443 514.394 288.923 514.287 289.552H518.655C518.613 288.965 518.399 288.496 518.015 288.144C517.642 287.781 517.162 287.6 516.575 287.6ZM520.682 286.64H521.882V284.08H523.162V286.64H524.362V287.84H523.162V294H521.882V287.84H520.682V286.64ZM466.623 313.32C466.623 312.52 466.788 311.837 467.118 311.272C467.449 310.696 467.892 310.253 468.447 309.944C469.001 309.635 469.609 309.48 470.271 309.48C470.815 309.48 471.3 309.603 471.727 309.848C472.164 310.093 472.516 310.445 472.783 310.904V304.52H474.062V317H472.783V315.736C472.516 316.195 472.164 316.547 471.727 316.792C471.3 317.037 470.815 317.16 470.271 317.16C469.609 317.16 469.001 317.005 468.447 316.696C467.892 316.387 467.449 315.944 467.118 315.368C466.788 314.792 466.623 314.109 466.623 313.32ZM467.919 313.32C467.919 313.885 468.031 314.365 468.255 314.76C468.489 315.155 468.799 315.453 469.183 315.656C469.567 315.859 469.983 315.96 470.431 315.96C470.804 315.96 471.172 315.859 471.535 315.656C471.897 315.453 472.196 315.155 472.431 314.76C472.665 314.365 472.783 313.885 472.783 313.32C472.783 312.755 472.665 312.275 472.431 311.88C472.196 311.485 471.897 311.187 471.535 310.984C471.172 310.781 470.804 310.68 470.431 310.68C469.983 310.68 469.567 310.781 469.183 310.984C468.799 311.187 468.489 311.485 468.255 311.88C468.031 312.275 467.919 312.755 467.919 313.32ZM475.748 313.32C475.748 312.573 475.913 311.912 476.243 311.336C476.585 310.76 477.044 310.307 477.62 309.976C478.196 309.645 478.841 309.48 479.556 309.48C480.281 309.48 480.926 309.645 481.492 309.976C482.068 310.307 482.521 310.76 482.852 311.336C483.193 311.912 483.364 312.573 483.364 313.32C483.364 314.056 483.193 314.717 482.852 315.304C482.521 315.88 482.068 316.333 481.492 316.664C480.926 316.995 480.281 317.16 479.556 317.16C478.841 317.16 478.196 316.995 477.62 316.664C477.044 316.333 476.585 315.88 476.243 315.304C475.913 314.717 475.748 314.056 475.748 313.32ZM477.044 313.32C477.044 313.832 477.15 314.285 477.364 314.68C477.588 315.075 477.886 315.389 478.26 315.624C478.644 315.848 479.076 315.96 479.556 315.96C480.036 315.96 480.462 315.848 480.836 315.624C481.22 315.389 481.518 315.075 481.732 314.68C481.956 314.285 482.068 313.832 482.068 313.32C482.068 312.808 481.956 312.355 481.732 311.96C481.518 311.555 481.22 311.24 480.836 311.016C480.462 310.792 480.036 310.68 479.556 310.68C479.076 310.68 478.644 310.792 478.26 311.016C477.886 311.24 477.588 311.555 477.364 311.96C477.15 312.355 477.044 312.808 477.044 313.32ZM485.698 313.32C485.698 313.832 485.805 314.285 486.018 314.68C486.242 315.075 486.541 315.389 486.914 315.624C487.298 315.848 487.73 315.96 488.21 315.96C488.807 315.96 489.341 315.827 489.81 315.56C490.279 315.293 490.599 314.979 490.77 314.616V316.216C490.514 316.515 490.146 316.749 489.666 316.92C489.197 317.08 488.711 317.16 488.21 317.16C487.495 317.16 486.85 316.995 486.274 316.664C485.698 316.333 485.239 315.88 484.898 315.304C484.567 314.717 484.402 314.056 484.402 313.32C484.402 312.573 484.567 311.912 484.898 311.336C485.239 310.76 485.698 310.307 486.274 309.976C486.85 309.645 487.495 309.48 488.21 309.48C488.711 309.48 489.197 309.565 489.666 309.736C490.146 309.896 490.514 310.125 490.77 310.424V312.024C490.599 311.661 490.279 311.347 489.81 311.08C489.341 310.813 488.807 310.68 488.21 310.68C487.73 310.68 487.298 310.792 486.914 311.016C486.541 311.24 486.242 311.555 486.018 311.96C485.805 312.355 485.698 312.808 485.698 313.32ZM494.043 314.12C494.043 314.707 494.176 315.16 494.443 315.48C494.709 315.8 495.099 315.96 495.611 315.96C496.176 315.96 496.629 315.789 496.971 315.448C497.312 315.107 497.483 314.664 497.483 314.12V309.64H498.763V317H497.483V315.848C496.992 316.723 496.261 317.16 495.291 317.16C494.523 317.16 493.909 316.899 493.451 316.376C492.992 315.853 492.763 315.155 492.763 314.28V309.64H494.043V314.12ZM511.249 312.36V317H509.969V312.52C509.969 311.891 509.851 311.427 509.617 311.128C509.393 310.829 509.041 310.68 508.561 310.68C508.038 310.68 507.622 310.845 507.313 311.176C507.003 311.496 506.849 311.944 506.849 312.52V317H505.569V312.52C505.569 311.891 505.451 311.427 505.217 311.128C504.993 310.829 504.641 310.68 504.161 310.68C503.638 310.68 503.222 310.845 502.913 311.176C502.603 311.496 502.449 311.944 502.449 312.52V317H501.169V309.64H502.449V310.712C502.886 309.891 503.563 309.48 504.481 309.48C504.993 309.48 505.43 309.603 505.793 309.848C506.166 310.083 506.438 310.419 506.609 310.856C507.121 309.939 507.878 309.48 508.881 309.48C509.638 309.48 510.219 309.731 510.625 310.232C511.041 310.733 511.249 311.443 511.249 312.36ZM516.501 317.16C515.818 317.16 515.21 317 514.677 316.68C514.154 316.349 513.744 315.896 513.445 315.32C513.157 314.744 513.013 314.077 513.013 313.32C513.013 312.552 513.162 311.88 513.461 311.304C513.77 310.728 514.197 310.28 514.741 309.96C515.296 309.64 515.936 309.48 516.661 309.48C517.738 309.48 518.586 309.816 519.205 310.488C519.824 311.16 520.133 312.083 520.133 313.256C520.133 313.331 520.128 313.411 520.117 313.496C520.117 313.571 520.117 313.619 520.117 313.64H514.325C514.378 314.376 514.608 314.947 515.013 315.352C515.418 315.757 515.968 315.96 516.661 315.96C517.664 315.96 518.432 315.517 518.965 314.632L520.005 315.288C519.237 316.536 518.069 317.16 516.501 317.16ZM516.661 310.6C516.032 310.6 515.52 310.771 515.125 311.112C514.73 311.443 514.48 311.923 514.373 312.552H518.741C518.698 311.965 518.485 311.496 518.101 311.144C517.728 310.781 517.248 310.6 516.661 310.6ZM526.608 312.52C526.608 311.293 526.085 310.68 525.04 310.68C524.485 310.68 524.032 310.851 523.68 311.192C523.338 311.533 523.168 311.976 523.168 312.52V317H521.888V309.64H523.168V310.792C523.648 309.917 524.378 309.48 525.36 309.48C526.138 309.48 526.752 309.741 527.2 310.264C527.658 310.776 527.888 311.475 527.888 312.36V317H526.608V312.52ZM529.174 309.64H530.374V307.08H531.654V309.64H532.854V310.84H531.654V317H530.374V310.84H529.174V309.64Z" fill="black"/>
<path d="M274.725 282.8H277.765C278.491 282.8 279.136 282.939 279.701 283.216C280.277 283.483 280.731 283.867 281.061 284.368C281.403 284.869 281.573 285.467 281.573 286.16C281.573 287.003 281.323 287.707 280.821 288.272C280.331 288.827 279.691 289.2 278.901 289.392L282.245 294H280.565L277.445 289.52H276.085V294H274.725V282.8ZM277.765 284H276.085V288.32H277.765C278.491 288.32 279.077 288.133 279.525 287.76C279.984 287.376 280.213 286.843 280.213 286.16C280.213 285.467 279.984 284.933 279.525 284.56C279.077 284.187 278.491 284 277.765 284ZM286.446 294.16C285.764 294.16 285.156 294 284.622 293.68C284.1 293.349 283.689 292.896 283.39 292.32C283.102 291.744 282.958 291.077 282.958 290.32C282.958 289.552 283.108 288.88 283.406 288.304C283.716 287.728 284.142 287.28 284.686 286.96C285.241 286.64 285.881 286.48 286.606 286.48C287.684 286.48 288.532 286.816 289.15 287.488C289.769 288.16 290.078 289.083 290.078 290.256C290.078 290.331 290.073 290.411 290.062 290.496C290.062 290.571 290.062 290.619 290.062 290.64H284.27C284.324 291.376 284.553 291.947 284.958 292.352C285.364 292.757 285.913 292.96 286.606 292.96C287.609 292.96 288.377 292.517 288.91 291.632L289.95 292.288C289.182 293.536 288.014 294.16 286.446 294.16ZM286.606 287.6C285.977 287.6 285.465 287.771 285.07 288.112C284.676 288.443 284.425 288.923 284.318 289.552H288.686C288.644 288.965 288.43 288.496 288.046 288.144C287.673 287.781 287.193 287.6 286.606 287.6ZM292.137 291.744C292.361 292.085 292.633 292.379 292.953 292.624C293.283 292.869 293.678 292.992 294.137 292.992C294.499 292.992 294.782 292.912 294.985 292.752C295.198 292.581 295.305 292.352 295.305 292.064C295.305 291.808 295.219 291.595 295.049 291.424C294.889 291.243 294.681 291.093 294.425 290.976C294.169 290.848 293.897 290.731 293.609 290.624C293.289 290.496 292.963 290.347 292.633 290.176C292.313 289.995 292.041 289.765 291.817 289.488C291.603 289.2 291.497 288.843 291.497 288.416C291.497 287.979 291.609 287.616 291.833 287.328C292.067 287.04 292.366 286.827 292.729 286.688C293.102 286.549 293.486 286.48 293.881 286.48C294.467 286.48 295.001 286.619 295.481 286.896C295.961 287.173 296.313 287.515 296.537 287.92L295.513 288.576C295.31 288.299 295.054 288.069 294.745 287.888C294.446 287.707 294.105 287.616 293.721 287.616C293.454 287.616 293.225 287.675 293.033 287.792C292.841 287.909 292.745 288.091 292.745 288.336C292.745 288.635 292.899 288.88 293.209 289.072C293.529 289.253 293.886 289.424 294.281 289.584C294.707 289.755 295.097 289.941 295.449 290.144C295.801 290.336 296.078 290.571 296.281 290.848C296.494 291.125 296.601 291.483 296.601 291.92C296.601 292.56 296.366 293.093 295.897 293.52C295.438 293.947 294.83 294.16 294.073 294.16C293.582 294.16 293.139 294.075 292.745 293.904C292.35 293.723 292.014 293.493 291.737 293.216C291.47 292.939 291.267 292.656 291.129 292.368L292.137 291.744ZM297.646 290.32C297.646 289.573 297.811 288.912 298.142 288.336C298.483 287.76 298.942 287.307 299.518 286.976C300.094 286.645 300.739 286.48 301.454 286.48C302.179 286.48 302.825 286.645 303.39 286.976C303.966 287.307 304.419 287.76 304.75 288.336C305.091 288.912 305.262 289.573 305.262 290.32C305.262 291.056 305.091 291.717 304.75 292.304C304.419 292.88 303.966 293.333 303.39 293.664C302.825 293.995 302.179 294.16 301.454 294.16C300.739 294.16 300.094 293.995 299.518 293.664C298.942 293.333 298.483 292.88 298.142 292.304C297.811 291.717 297.646 291.056 297.646 290.32ZM298.942 290.32C298.942 290.832 299.049 291.285 299.262 291.68C299.486 292.075 299.785 292.389 300.158 292.624C300.542 292.848 300.974 292.96 301.454 292.96C301.934 292.96 302.361 292.848 302.734 292.624C303.118 292.389 303.417 292.075 303.63 291.68C303.854 291.285 303.966 290.832 303.966 290.32C303.966 289.808 303.854 289.355 303.63 288.96C303.417 288.555 303.118 288.24 302.734 288.016C302.361 287.792 301.934 287.68 301.454 287.68C300.974 287.68 300.542 287.792 300.158 288.016C299.785 288.24 299.486 288.555 299.262 288.96C299.049 289.355 298.942 289.808 298.942 290.32ZM307.02 281.52H308.3V294H307.02V281.52ZM309.508 286.64H310.948L313.028 291.84L315.108 286.64H316.548L313.028 294.56L309.508 286.64ZM320.368 294.16C319.686 294.16 319.078 294 318.544 293.68C318.022 293.349 317.611 292.896 317.312 292.32C317.024 291.744 316.88 291.077 316.88 290.32C316.88 289.552 317.03 288.88 317.328 288.304C317.638 287.728 318.064 287.28 318.608 286.96C319.163 286.64 319.803 286.48 320.528 286.48C321.606 286.48 322.454 286.816 323.072 287.488C323.691 288.16 324 289.083 324 290.256C324 290.331 323.995 290.411 323.984 290.496C323.984 290.571 323.984 290.619 323.984 290.64H318.192C318.246 291.376 318.475 291.947 318.88 292.352C319.286 292.757 319.835 292.96 320.528 292.96C321.531 292.96 322.299 292.517 322.832 291.632L323.872 292.288C323.104 293.536 321.936 294.16 320.368 294.16ZM320.528 287.6C319.899 287.6 319.387 287.771 318.992 288.112C318.598 288.443 318.347 288.923 318.24 289.552H322.608C322.566 288.965 322.352 288.496 321.968 288.144C321.595 287.781 321.115 287.6 320.528 287.6ZM282.645 314.744C282.869 315.085 283.141 315.379 283.461 315.624C283.791 315.869 284.186 315.992 284.645 315.992C285.007 315.992 285.29 315.912 285.493 315.752C285.706 315.581 285.813 315.352 285.813 315.064C285.813 314.808 285.727 314.595 285.557 314.424C285.397 314.243 285.189 314.093 284.933 313.976C284.677 313.848 284.405 313.731 284.117 313.624C283.797 313.496 283.471 313.347 283.141 313.176C282.821 312.995 282.549 312.765 282.325 312.488C282.111 312.2 282.005 311.843 282.005 311.416C282.005 310.979 282.117 310.616 282.341 310.328C282.575 310.04 282.874 309.827 283.237 309.688C283.61 309.549 283.994 309.48 284.389 309.48C284.975 309.48 285.509 309.619 285.989 309.896C286.469 310.173 286.821 310.515 287.045 310.92L286.021 311.576C285.818 311.299 285.562 311.069 285.253 310.888C284.954 310.707 284.613 310.616 284.229 310.616C283.962 310.616 283.733 310.675 283.541 310.792C283.349 310.909 283.253 311.091 283.253 311.336C283.253 311.635 283.407 311.88 283.717 312.072C284.037 312.253 284.394 312.424 284.789 312.584C285.215 312.755 285.605 312.941 285.957 313.144C286.309 313.336 286.586 313.571 286.789 313.848C287.002 314.125 287.109 314.483 287.109 314.92C287.109 315.56 286.874 316.093 286.405 316.52C285.946 316.947 285.338 317.16 284.581 317.16C284.09 317.16 283.647 317.075 283.253 316.904C282.858 316.723 282.522 316.493 282.245 316.216C281.978 315.939 281.775 315.656 281.637 315.368L282.645 314.744ZM287.674 309.64H288.874V307.08H290.154V309.64H291.354V310.84H290.154V317H288.874V310.84H287.674V309.64ZM298.478 309.64L293.678 320.52H292.238L294.254 315.96L291.438 309.64H292.958L295.022 314.712L297.038 309.64H298.478ZM299.684 304.52H300.964V317H299.684V304.52ZM306.22 317.16C305.537 317.16 304.929 317 304.396 316.68C303.873 316.349 303.463 315.896 303.164 315.32C302.876 314.744 302.732 314.077 302.732 313.32C302.732 312.552 302.881 311.88 303.18 311.304C303.489 310.728 303.916 310.28 304.46 309.96C305.015 309.64 305.655 309.48 306.38 309.48C307.457 309.48 308.305 309.816 308.924 310.488C309.543 311.16 309.852 312.083 309.852 313.256C309.852 313.331 309.847 313.411 309.836 313.496C309.836 313.571 309.836 313.619 309.836 313.64H304.044C304.097 314.376 304.327 314.947 304.732 315.352C305.137 315.757 305.687 315.96 306.38 315.96C307.383 315.96 308.151 315.517 308.684 314.632L309.724 315.288C308.956 316.536 307.788 317.16 306.22 317.16ZM306.38 310.6C305.751 310.6 305.239 310.771 304.844 311.112C304.449 311.443 304.199 311.923 304.092 312.552H308.46C308.417 311.965 308.204 311.496 307.82 311.144C307.447 310.781 306.967 310.6 306.38 310.6ZM311.91 314.744C312.134 315.085 312.406 315.379 312.726 315.624C313.057 315.869 313.452 315.992 313.91 315.992C314.273 315.992 314.556 315.912 314.758 315.752C314.972 315.581 315.078 315.352 315.078 315.064C315.078 314.808 314.993 314.595 314.822 314.424C314.662 314.243 314.454 314.093 314.198 313.976C313.942 313.848 313.67 313.731 313.382 313.624C313.062 313.496 312.737 313.347 312.406 313.176C312.086 312.995 311.814 312.765 311.59 312.488C311.377 312.2 311.27 311.843 311.27 311.416C311.27 310.979 311.382 310.616 311.606 310.328C311.841 310.04 312.14 309.827 312.502 309.688C312.876 309.549 313.26 309.48 313.654 309.48C314.241 309.48 314.774 309.619 315.254 309.896C315.734 310.173 316.086 310.515 316.31 310.92L315.286 311.576C315.084 311.299 314.828 311.069 314.518 310.888C314.22 310.707 313.878 310.616 313.494 310.616C313.228 310.616 312.998 310.675 312.806 310.792C312.614 310.909 312.518 311.091 312.518 311.336C312.518 311.635 312.673 311.88 312.982 312.072C313.302 312.253 313.66 312.424 314.054 312.584C314.481 312.755 314.87 312.941 315.222 313.144C315.574 313.336 315.852 313.571 316.054 313.848C316.268 314.125 316.374 314.483 316.374 314.92C316.374 315.56 316.14 316.093 315.67 316.52C315.212 316.947 314.604 317.16 313.846 317.16C313.356 317.16 312.913 317.075 312.518 316.904C312.124 316.723 311.788 316.493 311.51 316.216C311.244 315.939 311.041 315.656 310.902 315.368L311.91 314.744Z" fill="black"/>
</svg>
